<svg height="469.33333pt" viewBox="0 0 469.33333 469.33333" width="469.33333pt" xmlns="http://www.w3.org/2000/svg"><g fill="#4caf50"><path d="m437.332031 192h-405.332031c-17.664062 0-32 14.335938-32 32v21.332031c0 17.664063 14.335938 32 32 32h405.332031c17.664063 0 32-14.335937 32-32v-21.332031c0-17.664062-14.335937-32-32-32zm0 0"/><path d="m192 32v405.332031c0 17.664063 14.335938 32 32 32h21.332031c17.664063 0 32-14.335937 32-32v-405.332031c0-17.664062-14.335937-32-32-32h-21.332031c-17.664062 0-32 14.335938-32 32zm0 0"/></g></svg>